<?xml version="1.0" standalone="no"?>
<!DOCTYPE svg PUBLIC "-//W3C//DTD SVG 20010904//EN"
 "http://www.w3.org/TR/2001/REC-SVG-20010904/DTD/svg10.dtd">
<svg version="1.0" xmlns="http://www.w3.org/2000/svg"
 width="260.000000pt" height="260.000000pt" viewBox="0 0 260.000000 260.000000"
 preserveAspectRatio="xMidYMid meet">
<metadata>
Created by potrace 1.14, written by Peter Selinger 2001-2017
</metadata>
<g transform="translate(0.000000,260.000000) scale(0.100000,-0.100000)"
fill="#000000" stroke="none">
<path d="M50 1300 l0 -1250 1250 0 1250 0 0 1250 0 1250 -1250 0 -1250 0 0
-1250z m1329 825 c43 -22 53 -69 29 -146 l-11 -39 -68 0 -67 0 16 50 c16 52
11 74 -12 49 -15 -15 -116 -300 -116 -326 0 -8 7 -13 17 -11 21 4 59 98 44
108 -7 4 -7 18 1 43 l11 37 78 0 78 0 -46 -135 -45 -135 -44 0 c-34 0 -44 4
-44 17 0 15 -2 14 -20 -2 -31 -28 -100 -31 -132 -5 -23 17 -28 29 -28 64 0 47
76 283 113 351 41 75 173 118 246 80z m-619 -5 c0 -5 -7 -28 -16 -50 -15 -38
-18 -40 -60 -40 -47 0 -48 -1 -68 -67 -7 -21 -4 -23 33 -23 23 0 41 -3 41 -7
0 -4 -7 -27 -16 -50 -16 -41 -18 -43 -59 -43 -41 0 -41 0 -58 -53 -9 -30 -17
-57 -17 -60 0 -4 20 -7 45 -7 25 0 45 -1 45 -3 0 -2 -7 -24 -16 -50 l-16 -47
-114 0 c-63 0 -114 1 -114 3 0 4 157 470 165 490 6 15 22 17 116 17 65 0 109
-4 109 -10z m161 -97 l1 -108 36 108 36 107 56 0 56 0 -86 -255 -85 -255 -57
0 -58 0 -1 103 -1 102 -35 -102 -35 -103 -54 0 c-30 0 -54 2 -54 5 0 4 148
445 165 493 3 7 25 12 60 12 l55 0 1 -107z m632 -148 l-85 -255 -67 0 -67 0
86 255 85 255 67 0 66 0 -85 -255z m-843 -549 c0 -2 -9 -48 -20 -101 -11 -54
-19 -100 -17 -102 2 -1 25 44 52 102 l48 105 87 0 86 0 -85 -255 -86 -255 -57
0 c-32 0 -58 1 -58 3 0 2 20 63 45 137 25 74 45 137 44 140 0 3 -31 -59 -69
-137 l-69 -143 -41 0 c-39 0 -42 2 -37 23 17 71 48 239 45 242 -2 2 -24 -55
-50 -128 l-45 -132 -57 -3 c-31 -2 -56 1 -56 5 0 6 124 375 165 491 3 8 30 12
90 12 47 0 85 -2 85 -4z m333 -251 l-85 -255 -67 0 -67 0 86 255 85 255 67 0
66 0 -85 -255z m267 252 c0 -2 -31 -94 -70 -205 l-70 -202 40 0 c39 0 39 -1
29 -26 -5 -15 -8 -28 -7 -30 2 -1 53 103 113 232 l110 234 96 0 c87 0 97 -2
93 -17 -2 -10 -22 -115 -45 -233 -22 -118 -43 -225 -46 -237 -5 -21 -11 -23
-73 -23 l-68 0 14 45 c13 44 13 45 -10 45 -19 0 -28 -10 -43 -45 l-18 -45
-172 0 c-95 0 -173 4 -173 9 0 8 136 414 159 474 10 26 14 27 76 27 36 0 65
-1 65 -3z m541 -104 l1 -108 36 108 36 107 56 0 56 0 -86 -255 -85 -255 -57 0
-58 0 -1 103 -1 102 -35 -102 -35 -103 -54 0 c-30 0 -54 2 -54 5 0 4 148 445
165 493 3 7 25 12 60 12 l55 0 1 -107z"/>
<path d="M1487 1153 c-8 -21 -27 -64 -41 -95 l-26 -58 23 0 c20 0 24 10 44 93
11 50 20 93 18 95 -1 2 -9 -14 -18 -35z"/>
</g>
</svg>
